<svg width="741" height="74" viewBox="0 0 741 74" fill="none" xmlns="http://www.w3.org/2000/svg">
<path opacity="0.0516081" d="M67.5883 2V72H51.2883L20.3883 34.7V72H0.988281V2H17.2883L48.1883 39.3V2H67.5883ZM101.355 17.3V32.7H132.255V48H101.355V72H81.5547V2H136.455V17.3H101.355ZM161.103 17.7H139.603V2H202.303V17.7H180.903V72H161.103V17.7ZM273.681 73.4C266.348 73.4 259.748 71.8667 253.881 68.8C248.081 65.6667 243.515 61.3333 240.181 55.8C236.848 50.2667 235.181 44 235.181 37C235.181 30 236.848 23.7333 240.181 18.2C243.515 12.6667 248.081 8.36666 253.881 5.29999C259.748 2.16666 266.348 0.599995 273.681 0.599995C280.081 0.599995 285.848 1.73333 290.981 4C296.115 6.26666 300.381 9.53333 303.781 13.8L291.181 25.2C286.648 19.7333 281.148 17 274.681 17C270.881 17 267.481 17.8333 264.481 19.5C261.548 21.1667 259.248 23.5333 257.581 26.6C255.981 29.6 255.181 33.0667 255.181 37C255.181 40.9333 255.981 44.4333 257.581 47.5C259.248 50.5 261.548 52.8333 264.481 54.5C267.481 56.1667 270.881 57 274.681 57C281.148 57 286.648 54.2667 291.181 48.8L303.781 60.2C300.381 64.4667 296.115 67.7333 290.981 70C285.848 72.2667 280.081 73.4 273.681 73.4ZM343.209 53.4H332.409V72H312.609V2H344.609C350.943 2 356.443 3.06666 361.109 5.2C365.776 7.26666 369.376 10.2667 371.909 14.2C374.443 18.0667 375.709 22.6333 375.709 27.9C375.709 32.9667 374.509 37.4 372.109 41.2C369.776 44.9333 366.409 47.8667 362.009 50L377.109 72H355.909L343.209 53.4ZM355.709 27.9C355.709 24.6333 354.676 22.1 352.609 20.3C350.543 18.5 347.476 17.6 343.409 17.6H332.409V38.1H343.409C347.476 38.1 350.543 37.2333 352.609 35.5C354.676 33.7 355.709 31.1667 355.709 27.9ZM442.833 56.7V72H386.633V2H441.533V17.3H406.233V29.1H437.333V43.9H406.233V56.7H442.833ZM500.72 58.4H471.12L465.62 72H445.42L476.32 2H495.82L526.82 72H506.22L500.72 58.4ZM494.92 43.8L485.92 21.4L476.92 43.8H494.92ZM543.818 17.7H522.318V2H585.018V17.7H563.618V72H543.818V17.7ZM626.718 73.4C619.318 73.4 612.651 71.8333 606.718 68.7C600.851 65.5667 596.218 61.2333 592.818 55.7C589.485 50.1667 587.818 43.9333 587.818 37C587.818 30.0667 589.485 23.8333 592.818 18.3C596.218 12.7667 600.851 8.43333 606.718 5.29999C612.651 2.16666 619.318 0.599995 626.718 0.599995C634.118 0.599995 640.751 2.16666 646.618 5.29999C652.551 8.43333 657.185 12.7667 660.518 18.3C663.918 23.8333 665.618 30.0667 665.618 37C665.618 43.9333 663.918 50.1667 660.518 55.7C657.185 61.2333 652.551 65.5667 646.618 68.7C640.751 71.8333 634.118 73.4 626.718 73.4ZM626.718 57C630.251 57 633.451 56.1667 636.318 54.5C639.185 52.8333 641.451 50.5 643.118 47.5C644.785 44.4333 645.618 40.9333 645.618 37C645.618 33.0667 644.785 29.6 643.118 26.6C641.451 23.5333 639.185 21.1667 636.318 19.5C633.451 17.8333 630.251 17 626.718 17C623.185 17 619.985 17.8333 617.118 19.5C614.251 21.1667 611.985 23.5333 610.318 26.6C608.651 29.6 607.818 33.0667 607.818 37C607.818 40.9333 608.651 44.4333 610.318 47.5C611.985 50.5 614.251 52.8333 617.118 54.5C619.985 56.1667 623.185 57 626.718 57ZM706.588 53.4H695.788V72H675.988V2H707.988C714.322 2 719.822 3.06666 724.488 5.2C729.155 7.26666 732.755 10.2667 735.288 14.2C737.822 18.0667 739.088 22.6333 739.088 27.9C739.088 32.9667 737.888 37.4 735.488 41.2C733.155 44.9333 729.788 47.8667 725.388 50L740.488 72H719.288L706.588 53.4ZM719.088 27.9C719.088 24.6333 718.055 22.1 715.988 20.3C713.922 18.5 710.855 17.6 706.788 17.6H695.788V38.1H706.788C710.855 38.1 713.922 37.2333 715.988 35.5C718.055 33.7 719.088 31.1667 719.088 27.9Z" fill="white"/>
</svg>
